<svg width="25" height="25" viewBox="0 0 25 25" fill="none" xmlns="http://www.w3.org/2000/svg">
<path d="M20.8333 12.5L21.6142 11.8753L22.1139 12.5L21.6142 13.1247L20.8333 12.5ZM17.4475 6.66696L21.6142 11.8753L20.0524 13.1247L15.8858 7.91635L17.4475 6.66696ZM21.6142 13.1247L17.4475 18.333L15.8858 17.0836L20.0524 11.8753L21.6142 13.1247Z" fill="white"/>
<path d="M4.16669 12.5L3.38582 11.8753L2.88606 12.5L3.38582 13.1247L4.16669 12.5ZM7.55249 6.66696L3.38582 11.8753L4.94756 13.1247L9.11422 7.91635L7.55249 6.66696ZM3.38582 13.1247L7.55249 18.333L9.11422 17.0836L4.94756 11.8753L3.38582 13.1247Z" fill="white"/>
</svg>
