<svg width="25" height="25" viewBox="0 0 25 25" fill="none" xmlns="http://www.w3.org/2000/svg">
<path fill-rule="evenodd" clip-rule="evenodd" d="M15.625 4.16666C16.0149 4.16666 16.2098 4.16666 16.3766 4.2279C16.9314 4.43155 17.1896 5.06979 16.9324 5.60188C16.855 5.7619 16.5974 6.01105 16.0822 6.50937C14.5157 8.02449 13.5417 10.1485 13.5417 12.5C13.5417 14.8515 14.5157 16.9755 16.0822 18.4906C16.5974 18.9889 16.855 19.2381 16.9324 19.3981C17.1896 19.9302 16.9314 20.5684 16.3766 20.7721C16.2098 20.8333 16.0149 20.8333 15.625 20.8333C11.0226 20.8333 7.29169 17.1024 7.29169 12.5C7.29169 7.89762 11.0226 4.16666 15.625 4.16666Z" fill="white"/>
</svg>
