<svg width="25" height="25" viewBox="0 0 25 25" fill="none" xmlns="http://www.w3.org/2000/svg">
<path d="M5.20831 13.2913C5.20831 11.8769 5.20831 11.1698 5.49421 10.5482C5.78011 9.92655 6.31703 9.46634 7.39087 8.5459L8.43253 7.65305C10.3735 5.98937 11.344 5.15753 12.5 5.15753C13.656 5.15753 14.6265 5.98937 16.5674 7.65305L17.6091 8.5459C18.6829 9.46634 19.2199 9.92655 19.5057 10.5482C19.7916 11.1698 19.7916 11.8769 19.7916 13.2913V17.7083C19.7916 19.6725 19.7916 20.6546 19.1815 21.2648C18.5713 21.875 17.5892 21.875 15.625 21.875H9.37498C7.41079 21.875 6.4287 21.875 5.81851 21.2648C5.20831 20.6546 5.20831 19.6725 5.20831 17.7083V13.2913Z" stroke="white" stroke-width="2"/>
<path d="M15.1041 21.875V16.625C15.1041 16.0727 14.6564 15.625 14.1041 15.625H10.8958C10.3435 15.625 9.89581 16.0727 9.89581 16.625V21.875" stroke="white" stroke-width="2" stroke-linecap="round" stroke-linejoin="round"/>
</svg>
