<svg width="25" height="25" viewBox="0 0 25 25" fill="none" xmlns="http://www.w3.org/2000/svg">
<path fill-rule="evenodd" clip-rule="evenodd" d="M21.875 10.4167L21.875 15.875C21.875 18.7034 21.875 20.1176 20.9963 20.9963C20.1176 21.875 18.7034 21.875 15.875 21.875H9.125C6.29657 21.875 4.88236 21.875 4.00368 20.9963C3.125 20.1176 3.125 18.7034 3.125 15.875V10.4167C3.125 11.4661 3.125 11.9908 3.31702 12.3968C3.51486 12.8151 3.8516 13.1518 4.26989 13.3496C4.67588 13.5417 5.20059 13.5417 6.25 13.5417H6.95359C7.58859 13.5417 7.90609 13.5417 8.15305 13.7003C8.18308 13.7196 8.21205 13.7405 8.23985 13.7629C8.46844 13.947 8.56884 14.2482 8.76965 14.8506L8.91915 15.2991C9.13916 15.9591 9.24916 16.2891 9.51105 16.4779C9.77294 16.6667 10.1208 16.6667 10.8165 16.6667H14.1835C14.8792 16.6667 15.2271 16.6667 15.489 16.4779C15.7508 16.2891 15.8608 15.9591 16.0808 15.2991L16.2304 14.8506C16.4312 14.2482 16.5316 13.947 16.7602 13.7629C16.7879 13.7405 16.8169 13.7196 16.847 13.7003C17.0939 13.5417 17.4114 13.5417 18.0464 13.5417H18.75C19.7994 13.5417 20.3241 13.5417 20.7301 13.3496C21.1484 13.1518 21.4851 12.8151 21.683 12.3968C21.875 11.9908 21.875 11.4661 21.875 10.4167Z" fill="white"/>
<path d="M3.125 7.125C3.125 5.23938 3.125 4.29657 3.71079 3.71079C4.29657 3.125 5.23938 3.125 7.125 3.125H17.875C19.7606 3.125 20.7034 3.125 21.2892 3.71079C21.875 4.29657 21.875 5.23938 21.875 7.125V17.875C21.875 19.7606 21.875 20.7034 21.2892 21.2892C20.7034 21.875 19.7606 21.875 17.875 21.875H7.125C5.23938 21.875 4.29657 21.875 3.71079 21.2892C3.125 20.7034 3.125 19.7606 3.125 17.875V7.125Z" stroke="white" stroke-width="2"/>
</svg>
